<svg width="61" height="55" viewBox="0 0 61 55" fill="none" xmlns="http://www.w3.org/2000/svg">
<path d="M12.5155 41.8649C11.1842 43.1342 9.38854 43.9159 7.39938 43.9159C3.31269 43.9159 0 40.6033 0 36.5166C0 32.4299 3.31269 29.1172 7.39938 29.1172C7.68576 29.1172 7.97213 29.1327 8.25077 29.1636C7.96439 30.1776 7.81734 31.2457 7.81734 32.3525C7.81734 36.2302 9.65944 39.6745 12.5155 41.8649V41.8649Z" fill="#7140EB"/>
<path d="M14.7988 36.517C14.7988 38.6145 13.9242 40.5186 12.5155 41.8653C9.65949 39.6749 7.81738 36.2306 7.81738 32.3529C7.81738 31.2461 7.96444 30.178 8.25082 29.1641C11.935 29.5898 14.7988 32.7167 14.7988 36.517V36.517Z" fill="white"/>
<path d="M14.7988 36.517C14.7988 38.6145 13.9242 40.5186 12.5155 41.8653C9.65949 39.6749 7.81738 36.2306 7.81738 32.3529C7.81738 31.2461 7.96444 30.178 8.25082 29.1641C11.935 29.5898 14.7988 32.7167 14.7988 36.517V36.517Z" fill="url(#paint0_linear_161_35)"/>
<path d="M29.3965 39.5506C27.2061 42.4531 23.7231 44.3339 19.8067 44.3339C17.059 44.3339 14.5358 43.4128 12.5157 41.8648C13.9243 40.5181 14.799 38.6141 14.799 36.5165C14.799 32.7162 11.9352 29.5893 8.25098 29.1636C9.64417 24.0862 14.2881 20.3633 19.8067 20.3633C22.8717 20.3633 25.6658 21.5088 27.7866 23.4128L18.2742 36.5784L29.3965 39.5506V39.5506Z" fill="#E0E0E0"/>
<path d="M31.7879 32.3498C31.7879 35.0433 30.8978 37.5433 29.3962 39.5479L18.2739 36.5758L27.7863 23.4102C30.2399 25.6006 31.7879 28.7894 31.7879 32.3498V32.3498Z" fill="white"/>
<path d="M31.7879 32.3498C31.7879 35.0433 30.8978 37.5433 29.3962 39.5479L18.2739 36.5758L27.7863 23.4102C30.2399 25.6006 31.7879 28.7894 31.7879 32.3498V32.3498Z" fill="url(#paint1_linear_161_35)"/>
<path d="M29.396 39.5511C30.8976 37.5464 31.7877 35.0464 31.7877 32.3529C31.7877 28.7926 30.2397 25.6037 27.7861 23.4133L41.0988 5L59.9997 47.7244L29.396 39.5511V39.5511Z" fill="#7140EB"/>
<defs>
<linearGradient id="paint0_linear_161_35" x1="16.2187" y1="45.8049" x2="2.6738" y2="24.1331" gradientUnits="userSpaceOnUse">
<stop stop-color="#7140EB"/>
<stop offset="1" stop-color="#7140EB" stop-opacity="0"/>
</linearGradient>
<linearGradient id="paint1_linear_161_35" x1="22.0237" y1="17.5508" x2="29.3767" y2="46.5755" gradientUnits="userSpaceOnUse">
<stop stop-color="#7140EB"/>
<stop offset="1" stop-color="#7140EB" stop-opacity="0"/>
</linearGradient>
</defs>
</svg>
