<svg width="61" height="55" viewBox="0 0 61 55" fill="none" xmlns="http://www.w3.org/2000/svg">
<path d="M55.2001 39.3556V50.6657C55.2001 51.9533 54.1819 53 52.9294 53H28.6363C29.8888 53 30.898 51.9533 30.898 50.6657V39.3556C30.898 36.4563 29.6095 33.8627 27.6001 32.149C29.177 30.8059 31.1864 30 33.394 30H46.0992C51.1272 30 55.2001 34.1869 55.2001 39.3556V39.3556Z" fill="#7140EB"/>
<path d="M39 27C44.5228 27 49 22.5228 49 17C49 11.4772 44.5228 7 39 7C33.4772 7 29 11.4772 29 17C29 22.5228 33.4772 27 39 27Z" fill="#E0E0E0"/>
<path d="M31.0499 39.4552V50.6834C31.0499 51.9616 29.9956 53.0008 28.6871 53.0008H26.5127C25.2042 53.0008 24.1499 51.9616 24.1499 50.6834V39.4552C24.1499 36.5769 25.496 34.002 27.6046 32.3008C29.7038 34.002 31.0499 36.5769 31.0499 39.4552Z" fill="white"/>
<path d="M31.0499 39.4552V50.6834C31.0499 51.9616 29.9956 53.0008 28.6871 53.0008H26.5127C25.2042 53.0008 24.1499 51.9616 24.1499 50.6834V39.4552C24.1499 36.5769 25.496 34.002 27.6046 32.3008C29.7038 34.002 31.0499 36.5769 31.0499 39.4552Z" fill="url(#paint0_linear_161_36)"/>
<path d="M24.2941 39.3556V50.6657C24.2941 51.9533 25.303 53 26.5551 53H2.26997C1.01789 53 0 51.9533 0 50.6657V39.3556C0 34.1869 4.07154 30 9.09791 30H21.808C24.0149 30 26.0236 30.8059 27.6 32.149C25.5822 33.8627 24.2941 36.4563 24.2941 39.3556Z" fill="#E0E0E0"/>
<path d="M15.525 26.55C20.9236 26.55 25.3 22.1736 25.3 16.775C25.3 11.3764 20.9236 7 15.525 7C10.1264 7 5.75 11.3764 5.75 16.775C5.75 22.1736 10.1264 26.55 15.525 26.55Z" fill="white"/>
<path d="M15.525 26.55C20.9236 26.55 25.3 22.1736 25.3 16.775C25.3 11.3764 20.9236 7 15.525 7C10.1264 7 5.75 11.3764 5.75 16.775C5.75 22.1736 10.1264 26.55 15.525 26.55Z" fill="url(#paint1_linear_161_36)"/>
<path d="M57.0885 28.6932C56.1952 27.7689 54.7458 27.7689 53.8525 28.6932L53.2542 29.3123L52.6559 28.6932C51.7626 27.7689 50.3132 27.7689 49.4199 28.6932C48.5267 29.6174 48.5267 31.1172 49.4199 32.0414L53.2458 36L56.4817 32.6518L57.0801 32.0327C57.9733 31.1084 57.9733 29.6087 57.0801 28.6845L57.0885 28.6932Z" fill="#E0E0E0"/>
<defs>
<linearGradient id="paint0_linear_161_36" x1="25.5899" y1="28.1806" x2="31.8883" y2="62.2592" gradientUnits="userSpaceOnUse">
<stop stop-color="#7140EB"/>
<stop offset="1" stop-color="#7140EB" stop-opacity="0"/>
</linearGradient>
<linearGradient id="paint1_linear_161_36" x1="9.83012" y1="3.1087" x2="11.8729" y2="36.2676" gradientUnits="userSpaceOnUse">
<stop stop-color="#7140EB"/>
<stop offset="1" stop-color="#7140EB" stop-opacity="0"/>
</linearGradient>
</defs>
</svg>
